<svg width="71" height="120" viewBox="0 0 71 120" fill="none" xmlns="http://www.w3.org/2000/svg">
<path d="M35.3322 0L32.8322 5.5L22.3322 24L6.33218 60C4.48088 64.2421 1.46259 72.1543 0.832179 78.5C-0.111335 78.2394 1.30416 85.7161 0.83218 87C1.6714 87.3119 1.37311 91.4034 2.83218 95L6.33218 103.5C9.43006 108.098 11.2882 109.971 14.8322 112C18.569 114.938 20.1728 115.748 22.3322 116C25.1181 117.369 26.4183 117.904 28.3322 118.5C31.7653 119.166 33.5734 119.656 38.8322 118.5C42.3392 118.455 44.4071 117.964 48.3322 116C53.0855 114.108 55.1553 112.731 58.3322 110L64.3322 103.5L67.8322 95L69.8322 87V77L67.8322 68C67.8322 68 67.8322 62 61.8322 50C55.8322 38 51.8322 31.5 51.8322 31.5L35.3322 0Z" fill="#FF0000" stroke="#EF2323"/>
</svg>
